<svg width="262" height="211" viewBox="0 0 262 211" fill="none" xmlns="http://www.w3.org/2000/svg">
<path d="M118.733 211C176.985 211 224.208 163.766 224.208 105.5C224.208 47.234 176.985 0 118.733 0C60.4804 0 13.2574 47.234 13.2574 105.5C13.2574 163.766 60.4804 211 118.733 211Z" fill="#EDEDED"/>
<path d="M1 128.543V165.415" stroke="black" stroke-miterlimit="10"/>
<path d="M247.376 31.338V103.79" stroke="black" stroke-miterlimit="10"/>
<path d="M1 26.377V98.8288" stroke="black" stroke-miterlimit="10"/>
<path d="M247.376 128.543L247.072 172.939H140.989" stroke="black" stroke-miterlimit="10"/>
<path d="M5.13843 36.611V85.2058" stroke="black" stroke-miterlimit="10"/>
<path d="M242.969 133.481V166.963" stroke="black" stroke-miterlimit="10"/>
<path d="M231.103 166.963H150.545" stroke="black" stroke-miterlimit="10"/>
<path d="M20.63 56.5577C20.63 56.5577 36.2005 21.4911 76.7519 6.11835" stroke="black" stroke-miterlimit="10"/>
<path d="M31.5448 140.831C31.5448 140.831 47.9051 175.527 88.804 189.995" stroke="black" stroke-miterlimit="10"/>
<path d="M199.828 32.6296C210.435 42.0158 217.892 54.4439 221.183 68.2215" stroke="black" stroke-miterlimit="10"/>
<path d="M227.719 73.5222C230.953 71.4801 234.791 71.4959 238.448 72.0805" stroke="black" stroke-miterlimit="10"/>
<path d="M227.616 76.8716C230.85 74.8296 234.693 74.8454 238.345 75.4299" stroke="black" stroke-miterlimit="10"/>
<path d="M230.211 68.7034C231.995 72.0845 231.684 75.9158 230.823 79.5141" stroke="black" stroke-miterlimit="10"/>
<path d="M234.779 68.7468C236.564 72.1279 236.252 75.9553 235.391 79.5575" stroke="black" stroke-miterlimit="10"/>
<path d="M225.176 45.4389L240.426 44.7674C240.426 44.7674 240.983 46.6673 241.647 47.398C243.041 48.9266 249.837 53.7809 252.234 56.4826C256.913 61.7714 260.7 68.5414 260.7 68.5414L251.475 70.1411L239.941 66.2466C239.941 66.2466 237.773 59.757 235.297 56.5734C231.92 52.2286 226.965 49.997 226.305 49.0688C224.883 47.1057 225.176 45.4389 225.176 45.4389Z" fill="#FAFAFA" stroke="black" stroke-miterlimit="10"/>
<path d="M250.824 56.4391C248.68 54.0692 242.815 49.6652 241.421 48.4802C240.509 47.6903 239.984 45.6758 239.984 45.6758L226.68 46.4026C226.68 46.4026 226.222 47.5244 228.331 49.4953C229.061 50.1786 233.334 52.2839 236.355 56.0718C238.574 58.8367 241.54 66.369 241.54 66.369L250.097 69.2326L259.124 67.7396C259.124 67.7396 255.01 61.0644 250.824 56.4391ZM249.244 68.2886L242.831 66.4757C242.831 66.4757 240.095 59.7056 237.875 56.925C234.854 53.1371 231.557 50.6961 230.676 50.2103C227.6 48.4368 227.703 47.0504 227.703 47.0504L239.502 46.5251C240.169 48.0936 241.248 49.4519 242.626 50.4551C244.565 51.9087 248.549 54.8 250.745 57.4108C253.304 60.4201 255.596 63.6461 257.596 67.0523L249.244 68.2886Z" fill="#00704A"/>
<path opacity="0.85" d="M239.941 66.2545C239.941 66.2545 242.547 66.3453 243.736 66.057L248.079 64.9787C248.079 64.9787 248.814 67.2024 249.371 67.9055C250.026 68.6965 250.73 69.4458 251.479 70.149L239.941 66.2545Z" fill="#00704A"/>
<path d="M248.494 54.7289L247.428 53.7414C246.061 52.6591 243.585 51.7665 240.482 52.4182C238.057 52.9119 235.664 53.7848 236.864 56.135C238.262 58.8762 240.758 59.8162 244.249 59.2396C248.53 58.5286 250.113 55.8901 248.494 54.7289Z" fill="#00704A"/>
<path d="M247.053 55.037L247.681 54.9224L246.974 54.1324L246.267 54.2944C245.877 53.9822 245.451 53.7171 244.999 53.5044C243.976 53.1331 241.556 53.1489 241.765 54.2667C241.947 55.2345 243.708 56.4668 241.911 56.5695C241.05 56.6208 239.897 55.5504 240.095 54.9501C240.144 54.8118 240.225 54.6865 240.329 54.5833C240.434 54.4801 240.56 54.4016 240.699 54.3536L240.249 53.5439C240.249 53.5439 238.01 54.089 238.997 55.9494L238.258 56.1192L238.91 56.8618L239.617 56.7314C240.066 57.1745 240.606 57.5131 241.201 57.7234C241.795 57.9337 242.429 58.0103 243.056 57.948C244.415 57.7702 244.592 56.6682 243.905 55.8901C243.388 55.3055 242.922 54.4642 243.617 54.3102C244.312 54.1561 245.359 54.405 245.789 55.0212C246.441 55.9454 245.56 56.1627 245.56 56.1627L246.231 57.162C246.231 57.162 247.511 56.605 247.416 55.7558C247.359 55.4888 247.234 55.2412 247.053 55.037Z" fill="#FAFAFA"/>
<path d="M250.879 63.4541C250.994 64.0544 250.484 64.639 249.718 64.8049C248.952 64.9708 248.253 64.5837 248.139 63.9873C248.024 63.3909 248.534 62.7826 249.3 62.6364C250.066 62.4903 250.769 62.8576 250.879 63.4541Z" fill="#00704A"/>
<path d="M237.994 49.5349C238.037 49.9575 237.56 50.3604 236.92 50.4315C236.28 50.5026 235.735 50.2142 235.68 49.7877C235.625 49.3611 236.11 48.9582 236.75 48.891C237.39 48.8239 237.947 49.0925 237.994 49.5349Z" fill="#00704A"/>
<path d="M174.108 85.5652C175.179 86.1458 175.712 87.232 175.293 87.9904C174.874 88.7488 173.682 88.8949 172.612 88.3143C171.542 87.7337 171.005 86.6435 171.427 85.8851C171.85 85.1268 173.038 84.9806 174.108 85.5652Z" fill="#00704A"/>
<path d="M212.069 36.9981L210.707 36.4135L209.451 37.2035C209.378 37.2494 209.294 37.2741 209.208 37.2748C209.122 37.2754 209.038 37.2521 208.964 37.2073C208.891 37.1626 208.831 37.0982 208.792 37.0215C208.753 36.9447 208.737 36.8587 208.744 36.7729L208.878 35.2957L207.737 34.3477C207.675 34.2921 207.63 34.2208 207.605 34.1413C207.58 34.0619 207.578 33.9772 207.597 33.8963C207.616 33.8154 207.657 33.7413 207.715 33.6817C207.773 33.6221 207.846 33.5793 207.927 33.5578L209.376 33.2299L209.921 31.8475C209.953 31.7677 210.007 31.6985 210.077 31.6477C210.146 31.5969 210.228 31.5665 210.314 31.5599C210.4 31.5534 210.486 31.5709 210.562 31.6105C210.638 31.6502 210.702 31.7104 210.746 31.7843L211.508 33.0562L212.989 33.1509C213.075 33.1558 213.158 33.1849 213.228 33.2348C213.299 33.2847 213.353 33.3533 213.386 33.4329C213.419 33.5125 213.429 33.5998 213.415 33.6848C213.401 33.7698 213.363 33.8489 213.305 33.9133L212.33 35.0311L212.697 36.4688C212.716 36.5515 212.712 36.6378 212.685 36.7182C212.658 36.7986 212.609 36.8701 212.544 36.9247C212.479 36.9794 212.401 37.0152 212.317 37.0281C212.233 37.041 212.147 37.0306 212.069 36.9981V36.9981Z" stroke="black" stroke-miterlimit="10"/>
<path opacity="0.14" d="M108.363 89.5861L108.955 85.9523L64.8855 84.0168L65.1224 87.6112L108.363 89.5861Z" fill="black"/>
<path d="M212.82 136.167L204.566 138.378C204.566 138.378 203.382 146.673 206.896 146.673C206.896 146.701 210.174 145.962 212.82 136.167Z" fill="black"/>
<path d="M213.886 135.771C213.451 135.85 213.056 136.087 212.622 136.166C199.67 139.445 186.48 144.224 173.212 144.975C169.026 145.212 163.537 145.646 159.865 143.039C159.865 143.039 154.771 140.669 156.469 136.443C156.469 136.443 150.94 132.888 149.834 128.938C149.631 128.277 149.59 127.577 149.714 126.896C149.837 126.216 150.123 125.575 150.545 125.028C150.545 125.028 143.437 118.392 150.269 115.035C150.032 114.877 139.883 109.229 145.135 103.422C145.135 103.422 148.452 99.67 155.955 103.264C155.955 103.264 167.328 106.227 179.451 105.358C179.451 105.358 162.629 92.5603 165.985 85.6876C165.985 85.6876 169.737 79.0914 181.189 90.1904C185.019 93.8637 189.245 97.1421 193.904 99.1565C198.564 101.171 203.856 101.329 209.029 100.657C209.226 100.618 209.463 100.618 209.66 100.578C211.082 100.381 212.464 100.144 213.846 99.8675C215.584 99.512 217.321 99.117 219.019 98.722C219.059 98.801 237.342 131.19 213.886 135.771Z" fill="#FAFAFA" stroke="black" stroke-miterlimit="10"/>
<path d="M150.308 115.074C150.308 115.074 161.681 119.419 181.11 118.471L150.308 115.074Z" fill="#FAFAFA"/>
<path d="M150.308 115.074C150.308 115.074 161.681 119.419 181.11 118.471" stroke="black" stroke-miterlimit="10"/>
<path d="M150.545 125.067C150.545 125.067 153.783 131.308 181.978 131.15L150.545 125.067Z" fill="#FAFAFA"/>
<path d="M150.545 125.067C150.545 125.067 153.783 131.308 181.978 131.15" stroke="black" stroke-miterlimit="10"/>
<path d="M156.469 136.483C156.469 136.483 167.92 141.854 182.689 138.26L156.469 136.483Z" fill="#FAFAFA"/>
<path d="M156.469 136.483C156.469 136.483 167.92 141.854 182.689 138.26" stroke="black" stroke-miterlimit="10"/>
<path d="M210.371 93.378L223.718 90.0206C223.718 90.0206 229.958 132.244 227.075 144.212L207.765 146.306C207.765 146.306 220.322 137.667 210.371 93.378Z" fill="#00704A" stroke="black" stroke-miterlimit="10"/>
<path d="M210.253 93.1133C210.253 93.1133 205.712 96.2732 205.317 101.171L211.674 100.262L210.253 93.1133Z" fill="black"/>
<path d="M102.124 120.474C99.241 123.989 80.3257 123.634 80.3257 123.634C80.3257 123.634 68.8739 127.031 61.7263 130.151C54.5788 133.271 46.839 130.309 46.839 130.309L5.14636 130.151L5.46228 122.528L43.8852 122.093C43.6877 110.204 66.1175 108.308 85.8226 109.019C105.638 109.77 105.717 116.089 102.124 120.474Z" fill="#FAFAFA" stroke="black" stroke-miterlimit="10"/>
<path d="M64.767 82.4369L68.7949 142.474L99.3989 143.817L109.232 84.4118L64.767 82.4369Z" fill="#FAFAFA" stroke="black" stroke-miterlimit="10"/>
<path d="M69.8215 145.397L69.94 142.514L98.1352 143.817L97.9773 146.661L69.8215 145.397Z" fill="#FAFAFA" stroke="black" stroke-miterlimit="10"/>
<path d="M98.0958 145.2L69.9401 143.896L69.9795 142.474L98.1748 143.778L98.0958 145.2Z" fill="#FAFAFA" stroke="black" stroke-miterlimit="10"/>
<path d="M102.242 126.359L106.428 101.199L65.8727 99.3422L67.6497 124.819L102.242 126.359Z" fill="#00704A" stroke="black" stroke-miterlimit="10"/>
<path d="M107.534 78.7241L87.2363 77.7761L87.2758 76.4332C87.2758 76.4332 103.94 70.6664 107.731 74.1423C108.608 74.9322 107.534 78.7241 107.534 78.7241Z" fill="#FAFAFA" stroke="black" stroke-miterlimit="10"/>
<path d="M66.8599 82.4369L67.1758 75.3667L107.731 77.1836L107.376 84.2933L66.8599 82.4369Z" fill="#FAFAFA" stroke="black" stroke-miterlimit="10"/>
<path opacity="0.4" d="M66.7415 82.4764L66.8599 79.751L107.415 81.6074L107.297 84.2933L66.7415 82.4764Z" fill="#FAFAFA" stroke="black" stroke-miterlimit="10"/>
<path d="M111.088 88.2037L62.5557 85.9918L65.3989 80.2645L108.758 82.2789L111.088 88.2037Z" fill="#FAFAFA" stroke="black" stroke-miterlimit="10"/>
<path d="M79.5754 111.863C82.0237 109.612 84.3536 108.19 84.7879 108.585C82.774 106.373 79.1805 106.412 76.6927 108.664C74.2049 110.915 73.81 114.51 75.9029 116.682C75.35 116.287 77.1271 114.115 79.5754 111.863Z" fill="#FAFAFA" stroke="black" stroke-width="0.6" stroke-miterlimit="10"/>
<path d="M84.788 108.585C85.1434 109.019 83.4849 111.231 81.0365 113.483C78.5882 115.734 76.2189 117.235 75.824 116.761C77.8379 118.973 81.4314 118.933 83.9192 116.682C86.4071 114.431 86.8019 110.836 84.788 108.585Z" fill="#FAFAFA" stroke="black" stroke-width="0.6" stroke-miterlimit="10"/>
<path d="M92.9227 109.533C95.0551 109.651 96.7532 110.007 96.7137 110.402C96.7927 108.506 95.1341 106.886 93.0017 106.768C90.8693 106.649 89.0528 108.15 89.0133 110.046C89.0528 109.612 90.7903 109.414 92.9227 109.533Z" fill="#FAFAFA" stroke="black" stroke-width="0.6" stroke-miterlimit="10"/>
<path d="M96.7137 110.362C96.6742 110.757 94.9367 110.994 92.8043 110.876C90.6719 110.757 89.0528 110.362 89.0133 110.007C88.9343 111.903 90.5929 113.522 92.7253 113.641C94.8577 113.759 96.5952 112.298 96.7137 110.362Z" fill="#FAFAFA" stroke="black" stroke-width="0.6" stroke-miterlimit="10"/>
<path d="M90.4428 118.459C91.6274 120.553 92.2593 122.37 91.9433 122.567C93.8388 121.501 94.3522 118.973 93.1675 116.879C91.9828 114.786 89.5345 113.957 87.639 115.023C88.0734 114.905 89.2581 116.405 90.4428 118.459Z" fill="#FAFAFA" stroke="black" stroke-width="0.6" stroke-miterlimit="10"/>
<path d="M91.9355 122.607C91.5801 122.804 90.277 121.264 89.1318 119.21C87.9866 117.156 87.3153 115.299 87.6312 115.102C85.7358 116.168 85.1829 118.736 86.4071 120.79C87.5523 122.844 90.048 123.673 91.9355 122.607Z" fill="#FAFAFA" stroke="black" stroke-width="0.6" stroke-miterlimit="10"/>
<path d="M79.2595 101.831C74.4023 108.15 66.1491 108.703 66.1491 108.703C66.1491 108.703 67.2548 117.195 60.5022 122.567C57.659 124.858 54.9342 125.688 52.5254 125.727L4.34868 125.253L4.19072 121.54L3.36145 102.226L46.2466 107.834C50.7879 102.265 58.3303 98.3547 65.3198 96.6563C66.8204 96.3008 68.2026 95.8663 69.5057 95.4714C72.8623 94.4049 75.508 93.299 77.0086 93.062C77.1779 93.0307 77.3499 93.0174 77.522 93.0225C82.3396 93.141 81.155 99.3422 79.2595 101.831Z" fill="#FAFAFA" stroke="black" stroke-miterlimit="10"/>
<path d="M38.9016 113.167C37.5195 116.445 36.8482 120.237 36.2164 123.594C35.4661 127.662 34.8343 131.059 33.1362 131.928C32.7808 132.086 31.991 131.928 30.9643 131.77C30.9087 131.776 30.8527 131.762 30.8064 131.731C30.4905 131.691 30.1745 131.612 29.8191 131.573C29.7007 131.573 29.5822 131.533 29.4637 131.533C28.8491 131.447 28.2275 131.421 27.6077 131.454C19.5125 131.81 5.01998 132.086 3.16399 132.126C3.10805 132.124 3.05423 132.104 3.01124 132.068C2.96824 132.032 2.93859 131.983 2.92706 131.928C2.92969 131.86 2.91616 131.793 2.88757 131.731C2.88757 131.652 2.84808 131.573 2.84808 131.494C2.85838 131.425 2.84441 131.356 2.80859 131.296V131.257C2.72961 130.783 2.65063 130.111 2.53217 129.282V129.203C2.53217 129.084 2.49268 128.966 2.49268 128.808C2.37421 128.097 2.29523 127.267 2.17677 126.359C2.13728 126.201 2.13728 126.043 2.09779 125.885V125.846C2.09779 125.727 2.0583 125.648 2.0583 125.53C0.992092 116.642 -0.19258 101.712 3.55889 98.9472C3.60522 98.9158 3.66118 98.9018 3.71684 98.9077L34.5183 103.055H34.5973L36.2954 102.581C36.6845 102.473 37.0915 102.444 37.4919 102.498C37.8923 102.551 38.2777 102.685 38.6247 102.892C38.9718 103.099 39.2733 103.374 39.5109 103.701C39.7485 104.027 39.9174 104.399 40.0073 104.793C40.4417 106.689 40.4417 109.533 38.9016 113.167Z" fill="black" stroke="black" stroke-miterlimit="10"/>
<path d="M36.2164 123.594C35.4661 127.662 34.8343 131.059 33.1362 131.928C32.7808 132.086 31.9911 131.928 30.9643 131.77C30.9087 131.776 30.8527 131.762 30.8064 131.731C30.4905 131.691 30.1746 131.612 29.8191 131.573C29.7007 131.573 29.5822 131.533 29.4637 131.533C28.8491 131.447 28.2275 131.421 27.6078 131.454C19.5125 131.81 5.02 132.086 3.16401 132.126C3.10806 132.124 3.05425 132.104 3.01125 132.068C2.96826 132.032 2.9386 131.983 2.92707 131.928C2.9297 131.86 2.91617 131.793 2.88758 131.731C2.88758 131.652 2.8481 131.573 2.8481 131.494C2.8584 131.425 2.84443 131.355 2.80861 131.296V131.257C2.72963 130.783 2.65065 130.111 2.53218 129.282V129.203C2.53218 129.084 2.49269 128.966 2.49269 128.808C2.37423 128.097 2.29525 127.267 2.17678 126.359C2.13729 126.201 2.13729 126.043 2.0978 125.885V125.846C2.09732 125.811 2.10447 125.776 2.11877 125.745C2.13306 125.713 2.15414 125.685 2.18052 125.662C2.20689 125.64 2.23792 125.623 2.27139 125.614C2.30487 125.605 2.33998 125.603 2.37423 125.609C6.99445 126.793 29.3848 127.662 34.8343 124.305C35.2698 124.022 35.7329 123.784 36.2164 123.594Z" fill="black" stroke="black" stroke-miterlimit="10"/>
<path d="M221.215 94.0811C221.215 94.0811 226.285 128.346 224.805 141.447L221.215 94.0811Z" fill="#00704A"/>
<path d="M221.215 94.0811C221.215 94.0811 226.285 128.346 224.805 141.447" stroke="black" stroke-miterlimit="10"/>
</svg>
