<svg width="354" height="333" viewBox="0 0 354 333" fill="none" xmlns="http://www.w3.org/2000/svg">
<path d="M160.024 180.968L221.275 178.812L251.36 304.256L218.446 305.387L193.041 201.798L194.584 305.387H163.418L160.024 180.968Z" stroke="black" stroke-miterlimit="10"/>
<path d="M216.801 186.682L233.485 254.705L243.248 298.581" stroke="black" stroke-miterlimit="10"/>
<path d="M270.989 331.463C270.946 331.463 235.658 331.733 235.658 331.733L235.461 311.953C242.412 309.909 254.686 311.49 254.686 311.49C254.909 315.656 259.276 317.281 262.696 318.001C266.553 318.824 270.089 321.28 271.023 325.287C271.122 325.699 271.683 331.459 270.989 331.463Z" fill="black" stroke="black" stroke-miterlimit="10"/>
<path d="M270.992 327.855L235.872 328.1L235.896 331.589L271.016 331.344L270.992 327.855Z" fill="#FAFAFA"/>
<path d="M154.984 331.72L190.32 331.472L190.221 311.688C183.24 309.746 170.991 311.512 170.991 311.512C170.828 315.682 166.487 317.366 163.08 318.142C159.223 318.999 155.734 321.528 154.86 325.544C154.766 325.96 154.294 331.729 154.984 331.72Z" fill="black" stroke="black" stroke-miterlimit="10"/>
<path d="M154.957 331.599L190.077 331.323L190.05 327.835L154.93 328.11L154.957 331.599Z" fill="#FAFAFA"/>
<path d="M251.322 304.251L253.825 311.49" stroke="black" stroke-miterlimit="10"/>
<path d="M233.798 304.907L235.465 311.867" stroke="black" stroke-miterlimit="10"/>
<path d="M190.32 305.383L190.221 311.688" stroke="black" stroke-miterlimit="10"/>
<path d="M170.991 311.512V305.383" stroke="black" stroke-miterlimit="10"/>
<path d="M167.893 298.581L165.115 189.763" stroke="black" stroke-miterlimit="10"/>
<path d="M219.578 301.937L247.349 301.011" stroke="black" stroke-miterlimit="10"/>
<path d="M166.504 301.937L189.745 301.474" stroke="black" stroke-miterlimit="10"/>
<path d="M216.801 132.369L222.801 178.812L159.206 180.998L165.72 137.774C165.726 137.734 165.724 137.693 165.713 137.655C165.702 137.616 165.684 137.58 165.658 137.549C165.633 137.517 165.601 137.492 165.565 137.474C165.529 137.456 165.49 137.446 165.45 137.444C162.523 137.289 140.117 136.192 137.593 137.924V137.461C139.397 128.46 143.593 119.682 149.923 112.979C153.048 109.606 156.808 106.884 160.989 104.968C167.301 102.157 173.618 102.294 180.055 102.988C183.883 104.776 188.286 110.3 192.5 110C196.713 109.7 200.597 103.585 204.132 101.274C206.734 101 209.429 101.038 212.018 100.88C212.018 100.88 217.624 99.8509 224.206 93.9362L240.406 114.458L216.801 132.369Z" fill="#00704A" stroke="black" stroke-miterlimit="10"/>
<path d="M237.012 114.466L218.112 128.653" stroke="black" stroke-miterlimit="10"/>
<g opacity="0.81">
<path d="M160.076 182.811L221.794 180.968L221.288 178.864L160.024 180.968" fill="black"/>
<path d="M160.076 182.811L221.794 180.968L221.288 178.864L160.024 180.968" stroke="black" stroke-miterlimit="10"/>
</g>
<path d="M139.787 137.461L137.593 137.924C137.593 137.924 136.796 140.208 139.23 140.718" fill="black"/>
<path d="M139.787 137.461L137.593 137.924C137.593 137.924 136.796 140.208 139.23 140.718" stroke="black" stroke-miterlimit="10"/>
<path d="M167.893 136.664L166.504 147.211" stroke="black" stroke-miterlimit="10"/>
<path d="M163.547 168.719L161.846 179.622" stroke="black" stroke-miterlimit="10"/>
<path d="M183.326 104.244C183.326 104.244 192.664 115.388 200.704 103.76L202.847 102.671C200.768 110.986 192.308 111.003 192.308 111.003C185.588 111.796 181.277 103.867 181.277 103.867L183.326 104.244Z" fill="black" stroke="black" stroke-miterlimit="10"/>
<path d="M215.361 80.5339C215.361 85.4369 213.907 90.2299 211.183 94.3067C208.46 98.3834 204.588 101.561 200.059 103.437C195.529 105.313 190.545 105.804 185.737 104.848C180.928 103.891 176.511 101.53 173.045 98.0633C169.578 94.5963 167.217 90.1791 166.26 85.3702C165.304 80.5614 165.795 75.5769 167.671 71.047C169.547 66.5172 172.724 62.6455 176.801 59.9215C180.877 57.1975 185.67 55.7435 190.573 55.7435C193.829 55.7402 197.054 56.3791 200.063 57.6237C203.072 58.8683 205.806 60.6943 208.108 62.9969C210.411 65.2996 212.236 68.0338 213.481 71.043C214.725 74.0523 215.364 77.2774 215.361 80.5339V80.5339Z" stroke="black" stroke-miterlimit="10"/>
<path d="M198.591 93.9577C198.521 93.4763 198.554 92.9858 198.685 92.5176C198.808 92.0352 199.053 91.5925 199.397 91.2318C199.478 91.1363 199.57 91.05 199.671 90.9746C199.766 90.896 199.868 90.8257 199.975 90.7646L200.301 90.5889L200.648 90.4603C200.88 90.3945 201.116 90.3458 201.355 90.3146C201.591 90.3146 201.831 90.3146 202.067 90.3146V90.4517C201.627 90.5596 201.197 90.703 200.781 90.8803C200.397 91.0446 200.05 91.2819 199.757 91.5789C199.468 91.8868 199.24 92.2458 199.084 92.6376C198.927 93.0519 198.82 93.4836 198.767 93.9234L198.591 93.9577Z" fill="black"/>
<path d="M186.591 86.1914C187.02 86.4529 187.483 86.7057 187.928 86.9329C188.352 87.1654 188.8 87.3495 189.265 87.4815C189.377 87.5158 189.484 87.5201 189.595 87.5458C189.707 87.5715 189.81 87.5458 189.908 87.5458C190.092 87.5444 190.272 87.4909 190.427 87.3915C190.759 87.0805 190.976 86.6668 191.044 86.2171H191.113C191.22 86.4773 191.26 86.7604 191.228 87.04C191.208 87.3688 191.064 87.6776 190.826 87.9049C190.587 88.1322 190.272 88.2611 189.943 88.2658C189.645 88.2842 189.347 88.2464 189.064 88.1544C188.543 87.9826 188.057 87.72 187.628 87.3786C187.212 87.0513 186.841 86.6693 186.527 86.2428L186.591 86.1914Z" fill="black"/>
<path d="M199.705 84.4513C200.688 84.4513 201.484 83.655 201.484 82.6726C201.484 81.6903 200.688 80.8939 199.705 80.8939C198.723 80.8939 197.927 81.6903 197.927 82.6726C197.927 83.655 198.723 84.4513 199.705 84.4513Z" fill="black" stroke="black" stroke-miterlimit="10"/>
<path d="M181.054 84.4513C182.036 84.4513 182.832 83.655 182.832 82.6726C182.832 81.6903 182.036 80.8939 181.054 80.8939C180.072 80.8939 179.275 81.6903 179.275 82.6726C179.275 83.655 180.072 84.4513 181.054 84.4513Z" fill="black" stroke="black" stroke-miterlimit="10"/>
<path d="M240.407 114.471C240.407 114.471 242.927 113.133 241.589 108.504L238.054 111.505L240.407 114.471Z" fill="black" stroke="black" stroke-miterlimit="10"/>
<path d="M183.553 141.473L183.244 127.046C183.244 127.046 182.241 123.343 187.333 123.188H200.37C200.37 123.188 204.381 122.88 203.995 127.354L204.021 153.971C204.021 153.971 204.227 157.828 201.141 157.674H195.253" fill="black"/>
<path d="M183.553 141.473L183.244 127.046C183.244 127.046 182.241 123.343 187.333 123.188H200.37C200.37 123.188 204.381 122.88 203.995 127.354L204.021 153.971C204.021 153.971 204.227 157.828 201.141 157.674H195.253" stroke="black" stroke-miterlimit="10"/>
<path d="M204.111 134.589C208.512 133.951 206.627 139.171 206.627 139.171C206.982 139.268 207.303 139.464 207.553 139.735C207.802 140.006 207.97 140.343 208.037 140.705C208.508 142.823 206.605 146.157 206.605 146.157C208.607 147.52 206.605 150.182 206.605 150.182C204.664 153.971 194.177 158.094 194.177 158.094L191.46 158.951C186.964 160.361 182.348 162.007 177.668 163.601C168.669 166.653 159.441 169.494 150.386 170.005C143.156 170.412 138.039 166.631 137.64 159.255C137.212 151.249 139.783 137.469 139.783 137.469C153.973 137.041 165.446 137.714 165.446 137.714L164.443 148.776C166.157 148.15 167.987 147.49 169.74 146.676C169.856 146.624 169.976 146.573 170.087 146.517C172.924 145.197 175.581 143.517 177.463 141.112C179.275 138.683 180.676 135.972 181.611 133.089C184.586 124.517 188.245 126.296 188.245 126.296C191.798 128.349 186.531 139.372 186.531 139.372C190.702 137.092 194.574 134.303 198.06 131.07C200.965 127.101 203.661 127.766 203.661 127.766C207.972 128.739 204.111 134.589 204.111 134.589Z" fill="#FAFAFA" stroke="black" stroke-miterlimit="10"/>
<path d="M164.447 148.767C164.447 148.767 158.332 150.147 153.604 152.788Z" fill="#FAFAFA"/>
<path d="M164.447 148.767C164.447 148.767 158.332 150.147 153.604 152.788" stroke="black" stroke-miterlimit="10"/>
<path d="M204.115 134.589C204.115 134.589 199.401 140.105 189.171 145.758Z" fill="#FAFAFA"/>
<path d="M204.115 134.589C204.115 134.589 199.401 140.105 189.171 145.758" stroke="black" stroke-miterlimit="10"/>
<path d="M206.623 139.171C206.623 139.171 206.623 142.994 192.051 151.755Z" fill="#FAFAFA"/>
<path d="M206.623 139.171C206.623 139.171 206.623 142.994 192.051 151.755" stroke="black" stroke-miterlimit="10"/>
<path d="M206.622 146.157C202.853 150.022 198.555 153.332 193.855 155.989Z" fill="#FAFAFA"/>
<path d="M206.622 146.157C202.853 150.022 198.555 153.332 193.855 155.989" stroke="black" stroke-miterlimit="10"/>
<path d="M158.396 137.422C158.689 137.497 158.968 137.622 159.219 137.791C160.504 138.567 162.146 139.561 162.489 141.142C162.684 142.335 162.701 143.55 162.54 144.747C162.476 145.454 162.373 146.157 162.249 146.856C162.171 147.284 162.086 147.713 161.991 148.112C161.953 148.27 161.794 149.397 161.666 149.397L164.524 148.51L165.291 137.585C162.994 137.461 160.697 137.422 158.396 137.422Z" fill="black" stroke="black" stroke-miterlimit="10"/>
<path d="M224.194 93.9577L229.594 89.3288C229.594 89.3288 232.114 87.5286 229.028 84.5456L218.065 76.5136L198.698 60.8782L207.955 51.0203L250.435 79.4881C250.435 79.4881 262.263 87.8201 254.755 94.9177L238.041 111.479L224.194 93.9577Z" fill="#FAFAFA" stroke="black" stroke-miterlimit="10"/>
<path d="M165.844 78.8237C165.844 78.8237 156.476 68.6444 170.053 60.621C170.053 60.621 169.127 49.6659 182.087 49.8202C182.087 49.8202 191.747 40.931 198.287 50.5874C198.205 50.4717 203.001 49.6402 203.391 49.6531C204.997 49.7642 206.557 50.2357 207.956 51.0326C209.354 51.8295 210.555 52.9314 211.469 54.2563C212.601 55.8961 213.319 57.7859 213.561 59.7638C213.678 60.6887 213.577 61.6282 213.265 62.5068C212.987 63.2226 212.168 63.9941 212.867 64.7056C213.133 64.9154 213.41 65.11 213.698 65.2885C214.558 65.9468 215.325 66.7181 215.978 67.5815C218.022 70.3074 218.502 73.7191 217.692 77.0107C217.183 78.907 216.398 80.718 215.361 82.3854C215.361 82.3854 206.618 73.2948 207.544 68.3444C207.544 68.3444 197.455 75.7506 189 65.8757C189 65.8757 185.173 72.819 174.681 68.0187C174.681 68.0272 174.441 75.5792 165.844 78.8237Z" fill="black" stroke="black" stroke-miterlimit="10"/>
<path d="M181.054 85.1842C183.781 85.1842 185.991 82.9736 185.991 80.2467C185.991 77.5198 183.781 75.3092 181.054 75.3092C178.327 75.3092 176.117 77.5198 176.117 80.2467C176.117 82.9736 178.327 85.1842 181.054 85.1842Z" stroke="black" stroke-miterlimit="10"/>
<path d="M199.705 85.2185C202.432 85.2185 204.643 83.0079 204.643 80.281C204.643 77.5541 202.432 75.3435 199.705 75.3435C196.979 75.3435 194.768 77.5541 194.768 80.281C194.768 83.0079 196.979 85.2185 199.705 85.2185Z" stroke="black" stroke-miterlimit="10"/>
<path d="M185.948 80.8468C185.948 80.8468 190.196 77.8465 194.708 80.8982" stroke="black" stroke-miterlimit="10"/>
<path d="M204.643 80.281L208.114 80.5339L214.975 83.6498" stroke="black" stroke-miterlimit="10"/>
<path d="M176.113 79.5267H172.847L165.797 81.2582" stroke="black" stroke-miterlimit="10"/>
<path d="M123.02 118.163H92.7808V125.723H123.02V118.163Z" fill="#00704A"/>
<path d="M77.2795 128.998H53.2112V141.354H77.2795V128.998Z" fill="#00704A"/>
<path d="M94.378 244.174H65.3811V255.459H94.378V244.174Z" fill="#EDEDED"/>
<path d="M86.2138 228.667H48.7141V238.787H86.2138V228.667Z" fill="#00704A"/>
<path d="M284.133 174.555H259.276V183.341H284.133V174.555Z" fill="#00704A"/>
<path d="M309.135 174.555H293.595V183.341H309.135V174.555Z" fill="#EDEDED"/>
<path d="M315.795 187.73H293.595V194.686H315.795V187.73Z" fill="#00704A"/>
<path d="M260.317 178.699H300.804" stroke="black" stroke-miterlimit="10"/>
<path d="M288.898 178.699V191.21H314.492" stroke="black" stroke-miterlimit="10"/>
<path d="M38 251.289H86.2138" stroke="black" stroke-miterlimit="10"/>
<path d="M62.1069 248.91V235.812H95.2695" stroke="black" stroke-miterlimit="10"/>
<path d="M71.3652 121.72H119.999" stroke="black" stroke-miterlimit="10"/>
<path d="M84.1624 121.724V136.275H125.862" stroke="black" stroke-miterlimit="10"/>
<path d="M84.1623 136.275H53.2112" stroke="black" stroke-miterlimit="10"/>
<line x1="106" y1="332.6" x2="354" y2="332.6" stroke="black" stroke-width="0.8"/>
<line x1="3.49691e-08" y1="332.6" x2="95" y2="332.6" stroke="black" stroke-width="0.8"/>
<line x1="100" y1="332.6" x2="101" y2="332.6" stroke="black" stroke-width="0.8"/>
<path d="M309.549 41.6709C301.947 40.1103 291.646 34.544 295.325 25.2036C296.937 21.1096 301.914 20.9529 303.754 24.84C305.823 29.207 305.657 34.6214 301.821 37.9087C288.116 49.6386 274.833 19.8197 273.612 9.78364" stroke="black" stroke-miterlimit="10"/>
</svg>
