<svg width="354" height="352" viewBox="0 0 354 352" fill="none" xmlns="http://www.w3.org/2000/svg">
<line x1="106" y1="351.6" x2="354" y2="351.6" stroke="black" stroke-width="0.8"/>
<line x1="-3.49691e-08" y1="351.6" x2="95" y2="351.6" stroke="black" stroke-width="0.8"/>
<line x1="100" y1="351.6" x2="101" y2="351.6" stroke="black" stroke-width="0.8"/>
<path d="M179.443 174.353C179.443 174.353 182.146 177.791 180.945 181.829C180.945 181.829 179.484 185.977 173.409 191.379L177.049 192.416L186.333 181.447C184.175 178.952 181.874 176.583 179.443 174.353Z" fill="black" stroke="black" stroke-miterlimit="10"/>
<path d="M229.313 118.076C227.506 124.9 223.124 130.76 217.086 134.423C211.048 138.086 203.824 139.269 196.932 137.722C190.039 136.175 184.015 132.019 180.125 126.127C176.235 120.235 174.781 113.066 176.069 106.125C176.968 106.3 177.89 106.329 178.799 106.211C178.917 106.211 179.036 106.179 179.149 106.157C179.263 106.134 179.45 106.098 179.604 106.061L179.837 106.002C179.95 105.975 180.055 105.943 180.164 105.907C180.273 105.87 180.378 105.838 180.487 105.797C180.701 105.72 180.911 105.638 181.111 105.543L181.416 105.397L181.721 105.238C181.816 105.188 181.912 105.134 182.003 105.074L182.285 104.902C182.38 104.842 182.471 104.779 182.562 104.715C182.653 104.651 182.74 104.588 182.831 104.524C182.922 104.46 183.045 104.365 183.145 104.283L183.259 104.188C183.363 104.106 183.468 104.019 183.573 103.924C184.553 103.045 185.416 102.044 186.139 100.945C186.244 100.791 186.349 100.631 186.444 100.49C186.608 100.231 186.767 99.972 186.899 99.7173C186.94 99.6537 186.977 99.5855 187.013 99.5218C187.159 99.2626 187.291 99.0079 187.418 98.7669L187.646 98.3121C187.823 97.9438 187.982 97.5981 188.101 97.2889C188.155 97.1616 188.205 97.0433 188.251 96.9296C188.579 96.1293 188.738 95.6199 188.738 95.6199C195.837 103.26 203.155 93.9828 203.155 93.9828C207.523 107.953 220.739 102.823 220.739 102.823C220.762 103.674 220.812 104.479 220.885 105.238C220.903 105.429 220.921 105.616 220.939 105.797C222.181 116.898 228.166 117.976 229.313 118.076Z" stroke="black" stroke-miterlimit="10"/>
<path d="M229.505 118.09C229.505 118.09 229.437 118.09 229.314 118.09C228.168 117.99 222.183 116.912 220.959 105.811C220.941 105.629 220.923 105.443 220.904 105.252C220.832 104.492 220.782 103.687 220.759 102.837C220.759 102.837 207.562 107.967 203.175 93.9964C203.175 93.9964 195.857 103.274 188.758 95.6335C188.758 95.6335 188.599 96.1428 188.271 96.9432C188.225 97.0569 188.175 97.1752 188.121 97.3025C187.989 97.6117 187.829 97.9573 187.666 98.3257L187.438 98.7805C187.311 99.0215 187.179 99.2761 187.033 99.5354C186.997 99.599 186.96 99.6672 186.919 99.7309C186.778 99.9856 186.619 100.245 186.464 100.504C186.369 100.659 186.264 100.818 186.159 100.959C185.436 102.058 184.573 103.059 183.593 103.937C183.493 104.028 183.388 104.119 183.279 104.201L183.165 104.297C183.065 104.379 182.956 104.46 182.851 104.538C182.746 104.615 182.673 104.67 182.582 104.729L182.305 104.915L182.023 105.088L181.741 105.252L181.436 105.411L181.131 105.556C180.931 105.647 180.721 105.734 180.507 105.811C180.398 105.852 180.293 105.888 180.184 105.92L179.857 106.016L179.624 106.075C179.479 106.111 179.329 106.143 179.169 106.17C179.01 106.198 178.937 106.211 178.819 106.225C177.91 106.343 176.988 106.313 176.089 106.138C175.374 106.002 175.087 103.123 175.06 102.66C174.952 100.623 175.4 98.5948 176.357 96.7932C176.996 95.6362 177.94 94.6767 179.087 94.0191C179.42 93.819 182.569 92.4092 182.569 92.4547C182.569 92.1819 185.267 78.5936 194.583 81.6496C194.583 81.6496 207.034 70.1896 215.662 83.7233C215.662 83.7233 230.68 81.9725 226.338 98.1301C226.566 98.2256 237.915 104.192 229.505 118.09Z" fill="black" stroke="black" stroke-miterlimit="10"/>
<path d="M192.347 112.96C195.242 112.96 197.589 110.614 197.589 107.721C197.589 104.828 195.242 102.482 192.347 102.482C189.451 102.482 187.104 104.828 187.104 107.721C187.104 110.614 189.451 112.96 192.347 112.96Z" stroke="black" stroke-miterlimit="10"/>
<path d="M211.123 119.258C214.019 119.258 216.366 116.913 216.366 114.02C216.366 111.126 214.019 108.781 211.123 108.781C208.228 108.781 205.881 111.126 205.881 114.02C205.881 116.913 208.228 119.258 211.123 119.258Z" stroke="black" stroke-miterlimit="10"/>
<path d="M197.075 109.972C197.075 109.972 202.363 108.376 205.881 112.96" stroke="black" stroke-miterlimit="10"/>
<path d="M215.707 116.562C218.92 116.052 220.84 117.703 223.198 119.536L227.662 123.006" stroke="black" stroke-miterlimit="10"/>
<path d="M187.706 105.434C187.706 105.434 186.636 104.069 182.795 104.811" stroke="black" stroke-miterlimit="10"/>
<path d="M183.05 118.763C183.117 119.375 183.253 119.977 183.455 120.559C183.505 120.705 183.55 120.85 183.596 120.991C183.641 121.132 183.71 121.273 183.769 121.414C183.881 121.694 184.012 121.966 184.16 122.228C184.722 123.295 185.438 124.272 186.285 125.129C187.124 126.004 188.055 126.786 189.061 127.462C189.562 127.817 190.09 128.122 190.609 128.458C191.127 128.795 191.687 129.054 192.22 129.391L190.477 128.727C189.926 128.436 189.357 128.172 188.816 127.858C188.547 127.694 188.283 127.521 188.024 127.349C187.896 127.258 187.76 127.18 187.633 127.085L187.268 126.789C187.023 126.594 186.772 126.403 186.536 126.198L185.858 125.539C184.985 124.625 184.272 123.57 183.751 122.419C183.622 122.131 183.511 121.834 183.418 121.532C183.317 121.235 183.237 120.931 183.177 120.623C183.054 120.011 183.011 119.386 183.05 118.763Z" fill="black"/>
<path d="M189.275 106.807C189.846 106.606 190.445 106.497 191.05 106.484C191.669 106.465 192.286 106.56 192.87 106.766C193.462 106.985 193.967 107.388 194.311 107.917C194.656 108.445 194.821 109.07 194.781 109.699C194.696 109.416 194.591 109.14 194.467 108.872L194.281 108.49L194.03 108.158C193.682 107.74 193.226 107.425 192.711 107.248C192.182 107.045 191.625 106.924 191.059 106.889C190.77 106.859 190.48 106.846 190.19 106.848C189.894 106.848 189.598 106.848 189.279 106.848L189.275 106.807Z" fill="black"/>
<path d="M207.518 113.969C208.058 113.695 208.639 113.509 209.238 113.419C209.842 113.318 210.459 113.33 211.058 113.456C211.673 113.594 212.227 113.928 212.637 114.406C213.047 114.885 213.291 115.483 213.334 116.111C213.209 115.845 213.069 115.585 212.915 115.334L212.679 114.979L212.383 114.683C211.984 114.308 211.49 114.05 210.954 113.938C210.403 113.805 209.835 113.759 209.27 113.801C208.979 113.81 208.689 113.834 208.401 113.874C208.105 113.897 207.814 113.947 207.518 113.992V113.969Z" fill="black"/>
<path d="M255.242 127.978C257.735 125.353 259.684 122.173 260.955 118.652C262.878 113.135 263.706 107.177 263.976 101.302C264.006 100.645 264.02 99.9849 264.024 99.3284V98.6569C263.962 87.5662 259.933 76.0392 249.409 71.6969C246.886 70.6921 244.247 70.0806 241.568 69.8802C233.56 69.1975 225.839 70.6263 218.046 67.821C210.522 65.0813 203.907 59.9674 199.034 53.123C190.412 40.9207 188.657 25.3088 189.533 10.6034" stroke="black" stroke-miterlimit="10"/>
<path d="M171.191 79.9612C171.191 79.9612 155.138 59.51 108.661 69.5863C82.1296 75.3373 43.2153 86.0891 25.0179 61.5887C14.4107 47.3101 21.5171 27.456 29.646 13.5096C32.4438 8.70654 36.2503 4.33266 41.3577 1" stroke="black" stroke-miterlimit="10"/>
<path d="M343.672 38.3055C318.252 40.8451 288.698 48.5033 292.392 62.1088C294.242 68.9225 303.89 74.4071 312.064 80.1688C324.24 88.7574 325.682 100.256 310.535 107.129C301.243 111.348 291.732 115.466 283.11 119.967C276.011 123.678 272.374 127.26 268.352 131.821" stroke="black" stroke-miterlimit="10"/>
<path d="M243.678 124.787C244.174 120.867 243.929 116.292 241.708 112.886C240.343 110.799 238.013 109.189 235.455 109.134" stroke="black" stroke-miterlimit="10"/>
<path d="M195.682 138.236C195.682 138.236 186.899 136.535 183.732 137.299C180.566 138.365 177.716 140.203 175.44 142.647C175.44 142.647 164.073 152.242 157.519 160.428L157.137 160.974C157.137 160.974 179.363 171.015 186.353 181.438L195.682 138.236Z" fill="#00704A" stroke="black" stroke-miterlimit="10"/>
<path d="M157.191 160.983C157.191 160.983 153.969 163.466 156.673 166.249L160.413 162.611L157.191 160.983Z" fill="black" stroke="black" stroke-miterlimit="10"/>
<path d="M300.091 261.439H271.016V267.015H300.091V261.439Z" fill="#00704A"/>
<path d="M117.656 92.7685H98.8702V102.482H117.656V92.7685Z" fill="#EDEDED"/>
<path d="M103.894 97.5981H139.281" stroke="black" stroke-miterlimit="10"/>
<path d="M119.62 97.5981V106.657H145.177" stroke="black" stroke-miterlimit="10"/>
<path d="M119.619 106.657H111.319" stroke="black" stroke-miterlimit="10"/>
<path d="M145.179 99.7537H124.209V103.465H145.179V99.7537Z" fill="#00704A"/>
<path d="M145.127 163.52C145.618 163.466 146.106 163.384 146.588 163.275C147.069 163.183 147.542 163.052 148.003 162.884C148.912 162.612 149.722 162.081 150.333 161.356C150.888 160.595 151.119 159.644 150.974 158.714C150.846 157.732 150.582 156.772 150.192 155.862L150.333 155.785L150.701 156.453L151.034 157.149C151.237 157.629 151.39 158.129 151.489 158.641C151.601 159.172 151.602 159.72 151.489 160.251C151.377 160.782 151.155 161.284 150.838 161.724C150.151 162.545 149.22 163.127 148.18 163.384C147.685 163.516 147.18 163.609 146.669 163.661C146.16 163.7 145.649 163.7 145.14 163.661L145.127 163.52Z" fill="black"/>
<path d="M32.2297 292.696C31.8904 297.502 29.3064 304.295 23.2584 302.794C20.6076 302.136 20.1047 299.087 22.3463 297.637C24.8644 296.007 28.2098 295.667 30.5458 297.759C38.8831 305.234 21.6192 315.843 15.5432 317.414" stroke="black" stroke-miterlimit="10"/>
<path d="M46.4669 157.354H88.8118" stroke="black" stroke-miterlimit="10"/>
<path d="M59.1099 157.354V169.787" stroke="black" stroke-miterlimit="10"/>
<path d="M234.533 264.227H283.991" stroke="black" stroke-miterlimit="10"/>
<path d="M262.817 264.227V274.964H301.371" stroke="black" stroke-miterlimit="10"/>
<path d="M71.1189 146.54H52.1559V154.644H71.1189V146.54Z" fill="#00704A"/>
<path d="M259.262 252.858H234.533V261.071H259.262V252.858Z" fill="#EDEDED"/>
<path d="M88.8165 161.738H67.6417V169.787H88.8165V161.738Z" fill="#00704A"/>
<path d="M66.5414 157.354V144.393H81.2859" stroke="black" stroke-miterlimit="10"/>
<path d="M178.869 232.503L180.166 228.301L223.685 241.644L222.388 245.85L178.869 232.503Z" stroke="black" stroke-miterlimit="10"/>
<path d="M223.041 243.718L179.518 230.38L180.159 228.283L223.683 241.626L223.041 243.718Z" fill="black"/>
<path d="M261.928 162.07L227.342 239.17C226.978 239.917 226.354 240.506 225.587 240.827C224.82 241.149 223.962 241.18 223.174 240.916L181.839 228.247C181.038 228.026 180.345 227.521 179.89 226.826C179.435 226.131 179.25 225.294 179.368 224.472L180.51 218.028C186.595 219.674 192.652 221.211 198.404 222.926L201.885 223.958C201.885 223.958 215.92 227.069 220.671 224.449C220.671 224.449 224.685 223.058 223.538 220.193C223.538 220.193 227.925 218.024 228.93 215.45C229.117 215.019 229.179 214.545 229.109 214.081C229.039 213.617 228.84 213.182 228.535 212.826C228.535 212.826 234.246 208.651 229.135 206.195C229.135 206.195 237.381 202.757 233.531 198.664C233.531 198.664 231.156 196.045 225.258 198.173C219.27 199.109 213.19 199.301 207.155 198.746C207.155 198.746 220.562 190.833 218.268 186.14C218.268 186.14 215.674 181.638 206.436 188.596C203.364 190.906 199.974 192.939 196.333 194.121C192.693 195.304 188.629 195.213 184.688 194.576L194.108 141.283C194.131 141.152 194.163 141.022 194.204 140.896C194.503 140.051 195.124 139.359 195.933 138.971C196.742 138.583 197.671 138.531 198.518 138.827L259.685 157.568C259.814 157.608 259.942 157.655 260.067 157.709C260.479 157.869 260.855 158.109 261.172 158.417C261.49 158.724 261.742 159.091 261.916 159.498C262.089 159.904 262.18 160.341 262.182 160.783C262.184 161.224 262.098 161.662 261.928 162.07Z" fill="#FAFAFA" stroke="black" stroke-miterlimit="10"/>
<path d="M252.357 182.516L236.548 217.787L228.907 215.454C229.094 215.024 229.155 214.55 229.085 214.086C229.015 213.622 228.816 213.187 228.511 212.83C228.511 212.83 234.223 208.656 229.112 206.2C229.112 206.2 237.358 202.762 233.508 198.669C233.508 198.669 231.133 196.05 225.235 198.178C219.247 199.113 213.167 199.306 207.132 198.751C207.132 198.751 220.538 190.838 218.245 186.145C218.245 186.145 215.651 181.643 206.413 188.601C203.341 190.911 199.951 192.944 196.31 194.126C192.465 195.377 188.278 195.204 184.182 194.517L189.721 163.32L252.357 182.516Z" fill="#00704A" stroke="black" stroke-miterlimit="10"/>
<path d="M260.422 164.502L262.661 159.518L194.559 138.649L193.599 144.024L260.422 164.502Z" fill="black"/>
<path d="M197.207 138.963L200.375 128.677L263.03 147.877L259.862 158.163L197.207 138.963Z" fill="#FAFAFA" stroke="black" stroke-miterlimit="10"/>
<path d="M264.401 165.444L189.354 142.447L195.971 135.198L263.004 155.744L264.401 165.444Z" fill="#EDEDED" stroke="black" stroke-miterlimit="10"/>
<path d="M228.13 189.269C231.388 190.265 233.891 191.516 233.718 192.079C234.542 189.319 232.608 186.299 229.349 185.304C226.091 184.308 222.769 185.726 221.913 188.46C222.1 187.909 224.88 188.278 228.13 189.269Z" fill="#FAFAFA"/>
<path d="M233.717 192.079C233.553 192.621 230.773 192.257 227.519 191.256C224.265 190.256 221.762 188.983 221.931 188.464C221.089 191.193 223.046 194.226 226.309 195.226C229.572 196.227 232.88 194.803 233.717 192.079Z" fill="#FAFAFA"/>
<path d="M177.069 192.962C177.069 192.962 169.615 190.069 162.734 189.496" stroke="black" stroke-miterlimit="10"/>
<path d="M229.117 206.195C229.117 206.195 220.211 208.678 205.357 207.369" stroke="black" stroke-miterlimit="10"/>
<path d="M228.51 212.826C228.51 212.826 225.78 216.864 204.155 215.773" stroke="black" stroke-miterlimit="10"/>
<path d="M223.514 220.193C216.775 221.597 209.871 222.038 203.008 221.503" stroke="black" stroke-miterlimit="10"/>
<path d="M217.482 244.695L253.961 316.948C249.593 317.603 221.651 328.081 221.651 328.081L171.629 230.307L171.137 229.184" stroke="black" stroke-miterlimit="10"/>
<path d="M143.207 202.475L114.487 250.807L92.1884 228.247L69.2526 252.858L109.581 297.311C109.581 297.311 125.309 311.409 136.122 295.347L173.706 224.295" stroke="black" stroke-miterlimit="10"/>
<path d="M234.533 323.346L239.107 332.227" stroke="black" stroke-miterlimit="10"/>
<path d="M253.959 316.947L257.235 322.841" stroke="black" stroke-miterlimit="10"/>
<path d="M82.6499 218.105L92.2065 228.247" stroke="black" stroke-miterlimit="10"/>
<path d="M67.6417 231.939L78.3178 243.154" stroke="black" stroke-miterlimit="10"/>
<path d="M114.487 250.807L108.262 261.071" stroke="black" stroke-miterlimit="10"/>
<path d="M165.929 228.247L135.784 283.55" stroke="black" stroke-miterlimit="10"/>
<path d="M212.538 248.843L244.239 310.726" stroke="black" stroke-miterlimit="10"/>
<path d="M282.092 334.301L248.498 351L239.105 332.227C244.785 327.043 257.236 322.841 257.236 322.841C259.388 326.711 264.312 326.225 267.912 325.324C271.967 324.315 276.495 325.01 279.248 328.394C279.535 328.744 282.752 333.974 282.092 334.301Z" fill="black" stroke="black" stroke-miterlimit="10"/>
<path d="M280.426 330.833L247.025 347.409L248.672 350.724L282.074 334.148L280.426 330.833Z" fill="#FAFAFA"/>
<path d="M40.569 227.11L68.7838 202.371L82.6727 218.11C78.4905 224.577 67.5323 231.826 67.5323 231.826C64.4605 228.642 59.8233 230.366 56.574 232.158C52.9334 234.172 48.3827 234.659 44.8331 232.094C44.4644 231.826 40.0138 227.596 40.569 227.11Z" fill="black" stroke="black" stroke-miterlimit="10"/>
<path d="M43.0683 230.014L71.1071 205.442L68.6646 202.659L40.6258 227.231L43.0683 230.014Z" fill="#FAFAFA"/>
<path d="M213.691 198.869C214.026 198 214.572 197.229 215.281 196.625C215.99 196.022 216.839 195.605 217.75 195.413C217.75 195.413 221.391 194.421 224.463 198.141C224.463 198.141 221.141 199.015 219.83 198.865C219.83 198.865 218.97 196.286 218.092 195.64C216.909 194.772 217.477 199.056 217.587 199.046C217.587 199.051 213.732 199.347 213.691 198.869Z" fill="#FAFAFA"/>
<path d="M201.054 191.988C201.141 191.969 201.226 191.937 201.304 191.893C203.405 190.81 205.388 189.512 207.22 188.018C204.489 186.563 201.786 185.099 199.374 183.198C198.724 182.689 198.055 182.065 197.973 181.242C197.85 179.996 199.06 178.932 200.034 178.359C201.407 177.595 202.935 177.152 204.504 177.065C206.073 176.977 207.641 177.247 209.09 177.854C210.485 178.44 211.74 179.314 212.772 180.419C213.302 180.987 213.761 181.618 214.137 182.297C214.233 182.466 215.079 184.439 214.983 184.458C214.983 184.458 211.143 185.258 210.296 186.108C210.296 186.108 201.509 180.86 198.086 181.306C197.245 181.42 197.208 183.402 197.176 183.998C197.133 185.268 197.353 186.533 197.822 187.714C198.462 189.261 199.422 190.656 200.639 191.806C200.721 191.902 200.831 191.969 200.953 191.997L201.054 191.988Z" fill="#FAFAFA"/>
<path d="M229.112 206.195C234.222 208.651 228.511 212.826 228.511 212.826C228.816 213.182 229.015 213.617 229.085 214.081C229.155 214.545 229.093 215.019 228.907 215.45C227.901 218.024 223.514 220.193 223.514 220.193C224.661 223.058 220.647 224.449 220.647 224.449C215.896 227.069 201.862 223.958 201.862 223.958L198.38 222.926C192.628 221.216 186.571 219.674 180.487 218.028C168.805 214.845 157.014 211.289 147.075 205.386C139.161 200.674 136.431 193.034 141.245 184.958C146.488 176.19 160.786 162.747 160.786 162.747C178.958 171.661 186.353 181.447 186.353 181.447L177.069 192.962C179.344 193.53 181.738 194.112 184.164 194.512L184.646 194.59C188.587 195.213 192.596 195.322 196.292 194.135C199.987 192.948 203.327 190.897 206.394 188.596C215.65 181.638 218.226 186.14 218.226 186.14C220.502 190.833 207.113 198.746 207.113 198.746C213.154 199.303 219.241 199.11 225.234 198.173C231.15 196.045 233.508 198.664 233.508 198.664C237.358 202.757 229.112 206.195 229.112 206.195Z" stroke="black" stroke-miterlimit="10"/>
<path d="M324.426 199.591C323.563 194.851 324.381 187.63 330.613 187.584C333.344 187.563 334.587 190.393 332.775 192.354C330.74 194.557 327.583 195.716 324.801 194.269C314.871 189.094 328.965 174.535 334.461 171.507" stroke="black" stroke-miterlimit="10"/>
<path d="M228.811 137.048C238.348 135.602 254.885 133.719 262.898 140.166C265.216 142.025 264.557 145.584 262.957 147.718L228.811 137.048Z" stroke="black" stroke-miterlimit="10"/>
<path d="M194.666 119.449C194.666 119.449 195.021 124.551 200.004 121.865" stroke="black" stroke-width="0.3" stroke-miterlimit="10"/>
<path d="M181.861 92.2323L182.928 91.6987V92.7658H181.861V92.2323Z" fill="black"/>
</svg>
