<svg width="16" height="16" viewBox="0 0 16 16" fill="none" xmlns="http://www.w3.org/2000/svg">
<g clip-path="url(#clip0_29_231)">
<path d="M7.82402 10.4999L0.500122 5.49994C-1.18288 3.76994 2.51402 0.877988 1.40002 3.05299C0.877017 4.07599 12.5451 2.11494 13.5001 3.99994C14.4201 5.81494 4.37202 8.13194 7.82402 10.4999C11.276 8.13194 13.365 9.25299 14.286 7.43799C15.241 5.55199 14.0241 11.0229 13.5001 9.99994C12.3861 7.82494 15.6831 6.22822 14.0001 7.95822L11.5001 11.9999L7.82402 10.4999ZM8.00002 15C-7.33298 4.86799 3.27902 -3.04001 7.82402 1.14299C7.88402 1.19799 7.94302 1.25499 8.00002 1.31399C8.05644 1.25504 8.11515 1.19833 8.17602 1.14399C12.72 -3.04201 23.333 4.86699 8.00002 15Z" fill="white"/>
</g>
<defs>
<clipPath id="clip0_29_231">
<rect width="16" height="16" fill="white"/>
</clipPath>
</defs>
</svg>
