<svg width="16" height="16" viewBox="0 0 16 16" fill="none" xmlns="http://www.w3.org/2000/svg">
<g clip-path="url(#clip0_29_216)">
<path d="M8.00002 2.74799L7.28302 2.01099C5.60002 0.280988 2.51402 0.877988 1.40002 3.05299C0.877017 4.07599 0.759017 5.55299 1.71402 7.43799C2.63402 9.25299 4.54802 11.427 8.00002 13.795C11.452 11.427 13.365 9.25299 14.286 7.43799C15.241 5.55199 15.124 4.07599 14.6 3.05299C13.486 0.877988 10.4 0.279988 8.71702 2.00999L8.00002 2.74799ZM8.00002 15C-7.33298 4.86799 3.27902 -3.04001 7.82402 1.14299C7.88402 1.19799 7.94302 1.25499 8.00002 1.31399C8.05644 1.25504 8.11515 1.19833 8.17602 1.14399C12.72 -3.04201 23.333 4.86699 8.00002 15Z" fill="white"/>
</g>
<defs>
<clipPath id="clip0_29_216">
<rect width="16" height="16" fill="white"/>
</clipPath>
</defs>
</svg>
