<svg width="26" height="26" viewBox="0 0 26 26" fill="none" xmlns="http://www.w3.org/2000/svg">
<path d="M16.6833 14.0833H3.99848C3.58511 14.0833 3.25 14.5441 3.25 15.1125V15.2208C3.25 15.7892 3.58511 16.25 3.99848 16.25H16.6833C17.0967 16.25 17.4318 15.7892 17.4318 15.2208V15.1125C17.4318 14.5441 17.0967 14.0833 16.6833 14.0833Z" fill="black"/>
<path d="M21.7208 6.5H4.27917C3.71077 6.5 3.25 6.96077 3.25 7.52917V7.6375C3.25 8.20589 3.71077 8.66667 4.27917 8.66667H21.7208C22.2892 8.66667 22.75 8.20589 22.75 7.6375V7.52917C22.75 6.96077 22.2892 6.5 21.7208 6.5Z" fill="black"/>
</svg>
