<svg width="35" height="48" viewBox="0 0 35 48" fill="none" xmlns="http://www.w3.org/2000/svg">
<path d="M6.50494 0.00149995L3.88907 5.60382H0V10.6422H1.48809L3.01173 19.6044H0.631751L3.7792 36.0634L5.79725 36.0409L7.82661 48H27.0393L27.1734 47.2035L29.067 36.0394L30.9865 36.0619L34.1259 19.6029H31.8526L33.3665 10.6407H35V5.60232H30.8686L28.243 0L6.50494 0.00149995ZM7.64242 1.61095H27.1233L28.7794 5.17334H5.97336L7.64242 1.61095ZM1.71914 7.20577H33.2663V9.04772H1.71914V7.20577ZM2.69504 21.2048H32.0739L29.5404 34.4389L17.3643 34.3204L5.22851 34.4389L2.69504 21.2048Z" fill="#DADADA"/>
</svg>
