<svg width="40" height="52" viewBox="0 0 40 52" fill="none" xmlns="http://www.w3.org/2000/svg">
<path d="M7.43422 0.00162495L4.44465 6.07081H0V11.529H1.70067L3.44197 21.2381H0.722001L4.31908 39.0687L6.62543 39.0443L8.9447 52H30.902L31.0553 51.1371L33.2195 39.0427L35.4132 39.067L39.001 21.2365H36.4029L38.1331 11.5274H40V6.06919H35.2784L32.2777 0L7.43422 0.00162495ZM8.73419 1.7452H30.9981L32.8908 5.60445H6.8267L8.73419 1.7452ZM1.96473 7.80626H38.0187V9.80169H1.96473V7.80626ZM3.08005 22.9719H36.6559L33.7605 37.3088L19.8449 37.1805L5.97544 37.3088L3.08005 22.9719Z" fill="#DADADA"/>
</svg>
