<svg width="38" height="65" viewBox="0 0 38 65" fill="none" xmlns="http://www.w3.org/2000/svg">
<path d="M7.0625 0.00203119L4.22242 7.58851H0V14.4113H1.61564L3.26987 26.5476H0.685901L4.10313 48.8358L6.29416 48.8054L8.49746 65H29.3569L29.5025 63.9214L31.5585 48.8033L33.6425 48.8338L37.051 26.5456H34.5828L36.2265 14.4092H38V7.58648H33.5144L30.6638 0L7.0625 0.00203119ZM8.29748 2.18149H29.4482L31.2462 7.00556H6.48537L8.29748 2.18149ZM1.86649 9.75782H36.1177V12.2521H1.86649V9.75782ZM2.92605 28.7149H34.8231L32.0725 46.636L18.8526 46.4756L5.67667 46.636L2.92605 28.7149Z" fill="#DADADA"/>
</svg>
