<svg width="35" height="42" viewBox="0 0 35 42" fill="none" xmlns="http://www.w3.org/2000/svg">
<path d="M6.50494 0.00131246L3.88907 4.90335H0V9.3119H1.48809L3.01173 17.1538H0.631751L3.7792 31.5555L5.79725 31.5358L7.82661 42H27.0393L27.1734 41.3031L29.067 31.5345L30.9865 31.5541L34.1259 17.1525H31.8526L33.3665 9.31058H35V4.90203H30.8686L28.243 0L6.50494 0.00131246ZM7.64242 1.40958H27.1233L28.7794 4.52667H5.97336L7.64242 1.40958ZM1.71914 6.30505H33.2663V7.91675H1.71914V6.30505ZM2.69504 18.5542H32.0739L29.5404 30.1341L17.3643 30.0304L5.22851 30.1341L2.69504 18.5542Z" fill="#DADADA"/>
</svg>
